<?xml version="1.0" encoding="UTF-8" standalone="no"?>
<!DOCTYPE svg PUBLIC "-//W3C//DTD SVG 1.1//EN"
 "http://www.w3.org/Graphics/SVG/1.1/DTD/svg11.dtd">
<!-- Generated by graphviz version 5.0.0 (20220707.1540)
 -->
<!-- Title: dependencies Pages: 1 -->
<svg width="2722pt" height="247pt"
 viewBox="0.00 0.00 2722.00 246.80" xmlns="http://www.w3.org/2000/svg" xmlns:xlink="http://www.w3.org/1999/xlink">
<g id="graph0" class="graph" transform="scale(1 1) rotate(0) translate(4 242.8)">
<title>dependencies</title>
<polygon fill="white" stroke="transparent" points="-4,4 -4,-242.8 2718,-242.8 2718,4 -4,4"/>
<text text-anchor="middle" x="1357" y="-8.2" font-family="sans-serif" font-size="14.00">dependencies</text>
<g id="clust1" class="cluster">
<title>cluster_AppModule</title>
<polygon fill="none" stroke="black" stroke-dasharray="1,5" points="8,-32.8 8,-230.8 2706,-230.8 2706,-32.8 8,-32.8"/>
</g>
<g id="clust17" class="cluster">
<title>cluster_AppModule_imports</title>
<polygon fill="none" stroke="black" points="2554,-40.8 2554,-92.8 2698,-92.8 2698,-40.8 2554,-40.8"/>
</g>
<g id="clust19" class="cluster">
<title>cluster_AppModule_bootstrap</title>
<polygon fill="none" stroke="black" points="1338,-170.8 1338,-222.8 1462,-222.8 1462,-170.8 1338,-170.8"/>
</g>
<g id="clust2" class="cluster">
<title>cluster_AppModule_declarations</title>
<polygon fill="none" stroke="black" points="16,-40.8 16,-92.8 2546,-92.8 2546,-40.8 16,-40.8"/>
</g>
<!-- AnadirUsuariosComponent -->
<g id="node1" class="node">
<title>AnadirUsuariosComponent</title>
<polygon fill="#ffffb3" stroke="black" points="2537.98,-84.8 2368.02,-84.8 2368.02,-48.8 2537.98,-48.8 2537.98,-84.8"/>
<text text-anchor="middle" x="2453" y="-62.6" font-family="Times,serif" font-size="14.00">AnadirUsuariosComponent</text>
</g>
<!-- AppModule -->
<g id="node15" class="node">
<title>AppModule</title>
<polygon fill="#8dd3c7" stroke="black" points="1441.66,-149.8 1438.66,-153.8 1417.66,-153.8 1414.66,-149.8 1358.34,-149.8 1358.34,-113.8 1441.66,-113.8 1441.66,-149.8"/>
<text text-anchor="middle" x="1400" y="-127.6" font-family="Times,serif" font-size="14.00">AppModule</text>
</g>
<!-- AnadirUsuariosComponent&#45;&gt;AppModule -->
<g id="edge1" class="edge">
<title>AnadirUsuariosComponent&#45;&gt;AppModule</title>
<path fill="none" stroke="black" d="M2453,-85.09C2453,-107.01 2453,-140.8 2453,-140.8 2453,-140.8 1451.93,-140.8 1451.93,-140.8"/>
<polygon fill="black" stroke="black" points="1451.93,-137.3 1441.93,-140.8 1451.93,-144.3 1451.93,-137.3"/>
</g>
<!-- AppComponent -->
<g id="node2" class="node">
<title>AppComponent</title>
<polygon fill="#ffffb3" stroke="black" points="2349.94,-84.8 2244.06,-84.8 2244.06,-48.8 2349.94,-48.8 2349.94,-84.8"/>
<text text-anchor="middle" x="2297" y="-62.6" font-family="Times,serif" font-size="14.00">AppComponent</text>
</g>
<!-- AppComponent&#45;&gt;AppModule -->
<g id="edge2" class="edge">
<title>AppComponent&#45;&gt;AppModule</title>
<path fill="none" stroke="black" d="M2297,-84.83C2297,-105.57 2297,-136.8 2297,-136.8 2297,-136.8 1451.76,-136.8 1451.76,-136.8"/>
<polygon fill="black" stroke="black" points="1451.76,-133.3 1441.76,-136.8 1451.76,-140.3 1451.76,-133.3"/>
</g>
<!-- CalendarioComponent -->
<g id="node3" class="node">
<title>CalendarioComponent</title>
<polygon fill="#ffffb3" stroke="black" points="2226.25,-84.8 2083.75,-84.8 2083.75,-48.8 2226.25,-48.8 2226.25,-84.8"/>
<text text-anchor="middle" x="2155" y="-62.6" font-family="Times,serif" font-size="14.00">CalendarioComponent</text>
</g>
<!-- CalendarioComponent&#45;&gt;AppModule -->
<g id="edge3" class="edge">
<title>CalendarioComponent&#45;&gt;AppModule</title>
<path fill="none" stroke="black" d="M2155,-84.91C2155,-104.14 2155,-131.8 2155,-131.8 2155,-131.8 1451.67,-131.8 1451.67,-131.8"/>
<polygon fill="black" stroke="black" points="1451.67,-128.3 1441.67,-131.8 1451.67,-135.3 1451.67,-128.3"/>
</g>
<!-- CardsInicioComponent -->
<g id="node4" class="node">
<title>CardsInicioComponent</title>
<polygon fill="#ffffb3" stroke="black" points="2065.15,-84.8 1918.85,-84.8 1918.85,-48.8 2065.15,-48.8 2065.15,-84.8"/>
<text text-anchor="middle" x="1992" y="-62.6" font-family="Times,serif" font-size="14.00">CardsInicioComponent</text>
</g>
<!-- CardsInicioComponent&#45;&gt;AppModule -->
<g id="edge4" class="edge">
<title>CardsInicioComponent&#45;&gt;AppModule</title>
<path fill="none" stroke="black" d="M1992,-85.1C1992,-103.07 1992,-127.8 1992,-127.8 1992,-127.8 1452.1,-127.8 1452.1,-127.8"/>
<polygon fill="black" stroke="black" points="1452.1,-124.3 1442.1,-127.8 1452.1,-131.3 1452.1,-124.3"/>
</g>
<!-- ClasificacionActualizadaComponent -->
<g id="node5" class="node">
<title>ClasificacionActualizadaComponent</title>
<polygon fill="#ffffb3" stroke="black" points="1901.04,-84.8 1678.96,-84.8 1678.96,-48.8 1901.04,-48.8 1901.04,-84.8"/>
<text text-anchor="middle" x="1790" y="-62.6" font-family="Times,serif" font-size="14.00">ClasificacionActualizadaComponent</text>
</g>
<!-- ClasificacionActualizadaComponent&#45;&gt;AppModule -->
<g id="edge5" class="edge">
<title>ClasificacionActualizadaComponent&#45;&gt;AppModule</title>
<path fill="none" stroke="black" d="M1790,-84.83C1790,-101.2 1790,-122.8 1790,-122.8 1790,-122.8 1451.74,-122.8 1451.74,-122.8"/>
<polygon fill="black" stroke="black" points="1451.74,-119.3 1441.74,-122.8 1451.74,-126.3 1451.74,-119.3"/>
</g>
<!-- GestionarUsuariosComponent -->
<g id="node6" class="node">
<title>GestionarUsuariosComponent</title>
<polygon fill="#ffffb3" stroke="black" points="1660.53,-84.8 1475.47,-84.8 1475.47,-48.8 1660.53,-48.8 1660.53,-84.8"/>
<text text-anchor="middle" x="1568" y="-62.6" font-family="Times,serif" font-size="14.00">GestionarUsuariosComponent</text>
</g>
<!-- GestionarUsuariosComponent&#45;&gt;AppModule -->
<g id="edge6" class="edge">
<title>GestionarUsuariosComponent&#45;&gt;AppModule</title>
<path fill="none" stroke="black" d="M1568,-84.99C1568,-99.98 1568,-118.8 1568,-118.8 1568,-118.8 1451.96,-118.8 1451.96,-118.8"/>
<polygon fill="black" stroke="black" points="1451.96,-115.3 1441.96,-118.8 1451.96,-122.3 1451.96,-115.3"/>
</g>
<!-- LoginComponent -->
<g id="node7" class="node">
<title>LoginComponent</title>
<polygon fill="#ffffb3" stroke="black" points="1457.27,-84.8 1342.73,-84.8 1342.73,-48.8 1457.27,-48.8 1457.27,-84.8"/>
<text text-anchor="middle" x="1400" y="-62.6" font-family="Times,serif" font-size="14.00">LoginComponent</text>
</g>
<!-- LoginComponent&#45;&gt;AppModule -->
<g id="edge7" class="edge">
<title>LoginComponent&#45;&gt;AppModule</title>
<path fill="none" stroke="black" d="M1400,-84.91C1400,-84.91 1400,-103.79 1400,-103.79"/>
<polygon fill="black" stroke="black" points="1396.5,-103.79 1400,-113.79 1403.5,-103.79 1396.5,-103.79"/>
</g>
<!-- NavbarComponent -->
<g id="node8" class="node">
<title>NavbarComponent</title>
<polygon fill="#ffffb3" stroke="black" points="1324.03,-84.8 1201.97,-84.8 1201.97,-48.8 1324.03,-48.8 1324.03,-84.8"/>
<text text-anchor="middle" x="1263" y="-62.6" font-family="Times,serif" font-size="14.00">NavbarComponent</text>
</g>
<!-- NavbarComponent&#45;&gt;AppModule -->
<g id="edge8" class="edge">
<title>NavbarComponent&#45;&gt;AppModule</title>
<path fill="none" stroke="black" d="M1263,-84.99C1263,-99.98 1263,-118.8 1263,-118.8 1263,-118.8 1348.15,-118.8 1348.15,-118.8"/>
<polygon fill="black" stroke="black" points="1348.15,-122.3 1358.15,-118.8 1348.15,-115.3 1348.15,-122.3"/>
</g>
<!-- PilotosComponent -->
<g id="node9" class="node">
<title>PilotosComponent</title>
<polygon fill="#ffffb3" stroke="black" points="1184.23,-84.8 1063.77,-84.8 1063.77,-48.8 1184.23,-48.8 1184.23,-84.8"/>
<text text-anchor="middle" x="1124" y="-62.6" font-family="Times,serif" font-size="14.00">PilotosComponent</text>
</g>
<!-- PilotosComponent&#45;&gt;AppModule -->
<g id="edge9" class="edge">
<title>PilotosComponent&#45;&gt;AppModule</title>
<path fill="none" stroke="black" d="M1124,-84.83C1124,-101.2 1124,-122.8 1124,-122.8 1124,-122.8 1348.08,-122.8 1348.08,-122.8"/>
<polygon fill="black" stroke="black" points="1348.08,-126.3 1358.08,-122.8 1348.08,-119.3 1348.08,-126.3"/>
</g>
<!-- PilotosSeguidosComponent -->
<g id="node10" class="node">
<title>PilotosSeguidosComponent</title>
<polygon fill="#ffffb3" stroke="black" points="1045.57,-84.8 874.43,-84.8 874.43,-48.8 1045.57,-48.8 1045.57,-84.8"/>
<text text-anchor="middle" x="960" y="-62.6" font-family="Times,serif" font-size="14.00">PilotosSeguidosComponent</text>
</g>
<!-- PilotosSeguidosComponent&#45;&gt;AppModule -->
<g id="edge10" class="edge">
<title>PilotosSeguidosComponent&#45;&gt;AppModule</title>
<path fill="none" stroke="black" d="M960,-85.1C960,-103.07 960,-127.8 960,-127.8 960,-127.8 1348.21,-127.8 1348.21,-127.8"/>
<polygon fill="black" stroke="black" points="1348.21,-131.3 1358.21,-127.8 1348.21,-124.3 1348.21,-131.3"/>
</g>
<!-- RegistroComponent -->
<g id="node11" class="node">
<title>RegistroComponent</title>
<polygon fill="#ffffb3" stroke="black" points="856.27,-84.8 727.73,-84.8 727.73,-48.8 856.27,-48.8 856.27,-84.8"/>
<text text-anchor="middle" x="792" y="-62.6" font-family="Times,serif" font-size="14.00">RegistroComponent</text>
</g>
<!-- RegistroComponent&#45;&gt;AppModule -->
<g id="edge11" class="edge">
<title>RegistroComponent&#45;&gt;AppModule</title>
<path fill="none" stroke="black" d="M792,-84.91C792,-104.14 792,-131.8 792,-131.8 792,-131.8 1348.21,-131.8 1348.21,-131.8"/>
<polygon fill="black" stroke="black" points="1348.21,-135.3 1358.21,-131.8 1348.21,-128.3 1348.21,-135.3"/>
</g>
<!-- RevisarComentariosComponent -->
<g id="node12" class="node">
<title>RevisarComentariosComponent</title>
<polygon fill="#ffffb3" stroke="black" points="709.64,-84.8 514.36,-84.8 514.36,-48.8 709.64,-48.8 709.64,-84.8"/>
<text text-anchor="middle" x="612" y="-62.6" font-family="Times,serif" font-size="14.00">RevisarComentariosComponent</text>
</g>
<!-- RevisarComentariosComponent&#45;&gt;AppModule -->
<g id="edge12" class="edge">
<title>RevisarComentariosComponent&#45;&gt;AppModule</title>
<path fill="none" stroke="black" d="M612,-84.83C612,-105.57 612,-136.8 612,-136.8 612,-136.8 1348.19,-136.8 1348.19,-136.8"/>
<polygon fill="black" stroke="black" points="1348.19,-140.3 1358.19,-136.8 1348.19,-133.3 1348.19,-140.3"/>
</g>
<!-- RevisarComentariosEliminadosComponent -->
<g id="node13" class="node">
<title>RevisarComentariosEliminadosComponent</title>
<polygon fill="#ffffb3" stroke="black" points="495.91,-84.8 236.09,-84.8 236.09,-48.8 495.91,-48.8 495.91,-84.8"/>
<text text-anchor="middle" x="366" y="-62.6" font-family="Times,serif" font-size="14.00">RevisarComentariosEliminadosComponent</text>
</g>
<!-- RevisarComentariosEliminadosComponent&#45;&gt;AppModule -->
<g id="edge13" class="edge">
<title>RevisarComentariosEliminadosComponent&#45;&gt;AppModule</title>
<path fill="none" stroke="black" d="M366,-85.09C366,-107.01 366,-140.8 366,-140.8 366,-140.8 1348.19,-140.8 1348.19,-140.8"/>
<polygon fill="black" stroke="black" points="1348.19,-144.3 1358.19,-140.8 1348.19,-137.3 1348.19,-144.3"/>
</g>
<!-- TemporadaEnCursoComponent -->
<g id="node14" class="node">
<title>TemporadaEnCursoComponent</title>
<polygon fill="#ffffb3" stroke="black" points="218.08,-84.8 23.92,-84.8 23.92,-48.8 218.08,-48.8 218.08,-84.8"/>
<text text-anchor="middle" x="121" y="-62.6" font-family="Times,serif" font-size="14.00">TemporadaEnCursoComponent</text>
</g>
<!-- TemporadaEnCursoComponent&#45;&gt;AppModule -->
<g id="edge14" class="edge">
<title>TemporadaEnCursoComponent&#45;&gt;AppModule</title>
<path fill="none" stroke="black" d="M121,-85.12C121,-108.46 121,-145.8 121,-145.8 121,-145.8 1348.17,-145.8 1348.17,-145.8"/>
<polygon fill="black" stroke="black" points="1348.17,-149.3 1358.17,-145.8 1348.17,-142.3 1348.17,-149.3"/>
</g>
<!-- AppComponent  -->
<g id="node17" class="node">
<title>AppComponent </title>
<polygon fill="#80b1d3" stroke="black" points="1454.44,-214.8 1345.56,-214.8 1345.56,-178.8 1454.44,-178.8 1454.44,-214.8"/>
<text text-anchor="middle" x="1400" y="-192.6" font-family="Times,serif" font-size="14.00">AppComponent </text>
</g>
<!-- AppModule&#45;&gt;AppComponent  -->
<g id="edge16" class="edge">
<title>AppModule&#45;&gt;AppComponent </title>
<path fill="none" stroke="black" stroke-dasharray="1,5" d="M1400,-149.91C1400,-149.91 1400,-168.79 1400,-168.79"/>
<polygon fill="black" stroke="black" points="1396.5,-168.79 1400,-178.79 1403.5,-168.79 1396.5,-168.79"/>
</g>
<!-- AppRoutingModule -->
<g id="node16" class="node">
<title>AppRoutingModule</title>
<polygon fill="#8dd3c7" stroke="black" points="2690.28,-84.8 2687.28,-88.8 2666.28,-88.8 2663.28,-84.8 2561.72,-84.8 2561.72,-48.8 2690.28,-48.8 2690.28,-84.8"/>
<text text-anchor="middle" x="2626" y="-62.6" font-family="Times,serif" font-size="14.00">AppRoutingModule</text>
</g>
<!-- AppRoutingModule&#45;&gt;AppModule -->
<g id="edge15" class="edge">
<title>AppRoutingModule&#45;&gt;AppModule</title>
<path fill="none" stroke="black" d="M2626,-85.12C2626,-108.46 2626,-145.8 2626,-145.8 2626,-145.8 1451.85,-145.8 1451.85,-145.8"/>
<polygon fill="black" stroke="black" points="1451.85,-142.3 1441.85,-145.8 1451.85,-149.3 1451.85,-142.3"/>
</g>
</g>
</svg>
