<?xml version="1.0" encoding="UTF-8" standalone="no"?>
<!DOCTYPE svg PUBLIC "-//W3C//DTD SVG 1.1//EN"
 "http://www.w3.org/Graphics/SVG/1.1/DTD/svg11.dtd">
<!-- Generated by graphviz version 5.0.0 (20220707.1540)
 -->
<!-- Title: dependencies Pages: 1 -->
<svg width="2561pt" height="247pt"
 viewBox="0.00 0.00 2561.00 246.80" xmlns="http://www.w3.org/2000/svg" xmlns:xlink="http://www.w3.org/1999/xlink">
<g id="graph0" class="graph" transform="scale(1 1) rotate(0) translate(4 242.8)">
<title>dependencies</title>
<polygon fill="white" stroke="transparent" points="-4,4 -4,-242.8 2557,-242.8 2557,4 -4,4"/>
<text text-anchor="middle" x="1276.5" y="-8.2" font-family="sans-serif" font-size="14.00">dependencies</text>
<g id="clust1" class="cluster">
<title>cluster_AppModule</title>
<polygon fill="none" stroke="black" stroke-dasharray="1,5" points="8,-32.8 8,-230.8 2545,-230.8 2545,-32.8 8,-32.8"/>
</g>
<g id="clust16" class="cluster">
<title>cluster_AppModule_imports</title>
<polygon fill="none" stroke="black" points="2393,-40.8 2393,-92.8 2537,-92.8 2537,-40.8 2393,-40.8"/>
</g>
<g id="clust18" class="cluster">
<title>cluster_AppModule_bootstrap</title>
<polygon fill="none" stroke="black" points="1269,-170.8 1269,-222.8 1393,-222.8 1393,-170.8 1269,-170.8"/>
</g>
<g id="clust2" class="cluster">
<title>cluster_AppModule_declarations</title>
<polygon fill="none" stroke="black" points="16,-40.8 16,-92.8 2385,-92.8 2385,-40.8 16,-40.8"/>
</g>
<!-- AnadirUsuariosComponent -->
<g id="node1" class="node">
<title>AnadirUsuariosComponent</title>
<polygon fill="#ffffb3" stroke="black" points="2376.98,-84.8 2207.02,-84.8 2207.02,-48.8 2376.98,-48.8 2376.98,-84.8"/>
<text text-anchor="middle" x="2292" y="-62.6" font-family="Times,serif" font-size="14.00">AnadirUsuariosComponent</text>
</g>
<!-- AppModule -->
<g id="node14" class="node">
<title>AppModule</title>
<polygon fill="#8dd3c7" stroke="black" points="1372.66,-149.8 1369.66,-153.8 1348.66,-153.8 1345.66,-149.8 1289.34,-149.8 1289.34,-113.8 1372.66,-113.8 1372.66,-149.8"/>
<text text-anchor="middle" x="1331" y="-127.6" font-family="Times,serif" font-size="14.00">AppModule</text>
</g>
<!-- AnadirUsuariosComponent&#45;&gt;AppModule -->
<g id="edge1" class="edge">
<title>AnadirUsuariosComponent&#45;&gt;AppModule</title>
<path fill="none" stroke="black" d="M2292,-84.84C2292,-106.46 2292,-139.8 2292,-139.8 2292,-139.8 1382.91,-139.8 1382.91,-139.8"/>
<polygon fill="black" stroke="black" points="1382.91,-136.3 1372.91,-139.8 1382.91,-143.3 1382.91,-136.3"/>
</g>
<!-- AppComponent -->
<g id="node2" class="node">
<title>AppComponent</title>
<polygon fill="#ffffb3" stroke="black" points="2188.94,-84.8 2083.06,-84.8 2083.06,-48.8 2188.94,-48.8 2188.94,-84.8"/>
<text text-anchor="middle" x="2136" y="-62.6" font-family="Times,serif" font-size="14.00">AppComponent</text>
</g>
<!-- AppComponent&#45;&gt;AppModule -->
<g id="edge2" class="edge">
<title>AppComponent&#45;&gt;AppModule</title>
<path fill="none" stroke="black" d="M2136,-85.02C2136,-105.17 2136,-134.8 2136,-134.8 2136,-134.8 1382.87,-134.8 1382.87,-134.8"/>
<polygon fill="black" stroke="black" points="1382.87,-131.3 1372.87,-134.8 1382.87,-138.3 1382.87,-131.3"/>
</g>
<!-- CardsInicioComponent -->
<g id="node3" class="node">
<title>CardsInicioComponent</title>
<polygon fill="#ffffb3" stroke="black" points="2065.15,-84.8 1918.85,-84.8 1918.85,-48.8 2065.15,-48.8 2065.15,-84.8"/>
<text text-anchor="middle" x="1992" y="-62.6" font-family="Times,serif" font-size="14.00">CardsInicioComponent</text>
</g>
<!-- CardsInicioComponent&#45;&gt;AppModule -->
<g id="edge3" class="edge">
<title>CardsInicioComponent&#45;&gt;AppModule</title>
<path fill="none" stroke="black" d="M1992,-85.02C1992,-103.63 1992,-129.8 1992,-129.8 1992,-129.8 1382.85,-129.8 1382.85,-129.8"/>
<polygon fill="black" stroke="black" points="1382.85,-126.3 1372.85,-129.8 1382.85,-133.3 1382.85,-126.3"/>
</g>
<!-- ClasificacionActualizadaComponent -->
<g id="node4" class="node">
<title>ClasificacionActualizadaComponent</title>
<polygon fill="#ffffb3" stroke="black" points="1901.04,-84.8 1678.96,-84.8 1678.96,-48.8 1901.04,-48.8 1901.04,-84.8"/>
<text text-anchor="middle" x="1790" y="-62.6" font-family="Times,serif" font-size="14.00">ClasificacionActualizadaComponent</text>
</g>
<!-- ClasificacionActualizadaComponent&#45;&gt;AppModule -->
<g id="edge4" class="edge">
<title>ClasificacionActualizadaComponent&#45;&gt;AppModule</title>
<path fill="none" stroke="black" d="M1790,-84.83C1790,-101.86 1790,-124.8 1790,-124.8 1790,-124.8 1382.95,-124.8 1382.95,-124.8"/>
<polygon fill="black" stroke="black" points="1382.95,-121.3 1372.95,-124.8 1382.95,-128.3 1382.95,-121.3"/>
</g>
<!-- GestionarUsuariosComponent -->
<g id="node5" class="node">
<title>GestionarUsuariosComponent</title>
<polygon fill="#ffffb3" stroke="black" points="1660.53,-84.8 1475.47,-84.8 1475.47,-48.8 1660.53,-48.8 1660.53,-84.8"/>
<text text-anchor="middle" x="1568" y="-62.6" font-family="Times,serif" font-size="14.00">GestionarUsuariosComponent</text>
</g>
<!-- GestionarUsuariosComponent&#45;&gt;AppModule -->
<g id="edge5" class="edge">
<title>GestionarUsuariosComponent&#45;&gt;AppModule</title>
<path fill="none" stroke="black" d="M1568,-85.04C1568,-100.37 1568,-119.8 1568,-119.8 1568,-119.8 1382.83,-119.8 1382.83,-119.8"/>
<polygon fill="black" stroke="black" points="1382.83,-116.3 1372.83,-119.8 1382.83,-123.3 1382.83,-116.3"/>
</g>
<!-- LoginComponent -->
<g id="node6" class="node">
<title>LoginComponent</title>
<polygon fill="#ffffb3" stroke="black" points="1457.27,-84.8 1342.73,-84.8 1342.73,-48.8 1457.27,-48.8 1457.27,-84.8"/>
<text text-anchor="middle" x="1400" y="-62.6" font-family="Times,serif" font-size="14.00">LoginComponent</text>
</g>
<!-- LoginComponent&#45;&gt;AppModule -->
<g id="edge6" class="edge">
<title>LoginComponent&#45;&gt;AppModule</title>
<path fill="none" stroke="black" d="M1357.72,-84.91C1357.72,-84.91 1357.72,-103.79 1357.72,-103.79"/>
<polygon fill="black" stroke="black" points="1354.22,-103.79 1357.72,-113.79 1361.22,-103.79 1354.22,-103.79"/>
</g>
<!-- NavbarComponent -->
<g id="node7" class="node">
<title>NavbarComponent</title>
<polygon fill="#ffffb3" stroke="black" points="1324.03,-84.8 1201.97,-84.8 1201.97,-48.8 1324.03,-48.8 1324.03,-84.8"/>
<text text-anchor="middle" x="1263" y="-62.6" font-family="Times,serif" font-size="14.00">NavbarComponent</text>
</g>
<!-- NavbarComponent&#45;&gt;AppModule -->
<g id="edge7" class="edge">
<title>NavbarComponent&#45;&gt;AppModule</title>
<path fill="none" stroke="black" d="M1306.72,-84.91C1306.72,-84.91 1306.72,-103.79 1306.72,-103.79"/>
<polygon fill="black" stroke="black" points="1303.22,-103.79 1306.72,-113.79 1310.22,-103.79 1303.22,-103.79"/>
</g>
<!-- PilotosComponent -->
<g id="node8" class="node">
<title>PilotosComponent</title>
<polygon fill="#ffffb3" stroke="black" points="1184.23,-84.8 1063.77,-84.8 1063.77,-48.8 1184.23,-48.8 1184.23,-84.8"/>
<text text-anchor="middle" x="1124" y="-62.6" font-family="Times,serif" font-size="14.00">PilotosComponent</text>
</g>
<!-- PilotosComponent&#45;&gt;AppModule -->
<g id="edge8" class="edge">
<title>PilotosComponent&#45;&gt;AppModule</title>
<path fill="none" stroke="black" d="M1124,-85.04C1124,-100.37 1124,-119.8 1124,-119.8 1124,-119.8 1279.11,-119.8 1279.11,-119.8"/>
<polygon fill="black" stroke="black" points="1279.11,-123.3 1289.11,-119.8 1279.11,-116.3 1279.11,-123.3"/>
</g>
<!-- PilotosSeguidosComponent -->
<g id="node9" class="node">
<title>PilotosSeguidosComponent</title>
<polygon fill="#ffffb3" stroke="black" points="1045.57,-84.8 874.43,-84.8 874.43,-48.8 1045.57,-48.8 1045.57,-84.8"/>
<text text-anchor="middle" x="960" y="-62.6" font-family="Times,serif" font-size="14.00">PilotosSeguidosComponent</text>
</g>
<!-- PilotosSeguidosComponent&#45;&gt;AppModule -->
<g id="edge9" class="edge">
<title>PilotosSeguidosComponent&#45;&gt;AppModule</title>
<path fill="none" stroke="black" d="M960,-84.83C960,-101.86 960,-124.8 960,-124.8 960,-124.8 1279.16,-124.8 1279.16,-124.8"/>
<polygon fill="black" stroke="black" points="1279.16,-128.3 1289.16,-124.8 1279.16,-121.3 1279.16,-128.3"/>
</g>
<!-- RegistroComponent -->
<g id="node10" class="node">
<title>RegistroComponent</title>
<polygon fill="#ffffb3" stroke="black" points="856.27,-84.8 727.73,-84.8 727.73,-48.8 856.27,-48.8 856.27,-84.8"/>
<text text-anchor="middle" x="792" y="-62.6" font-family="Times,serif" font-size="14.00">RegistroComponent</text>
</g>
<!-- RegistroComponent&#45;&gt;AppModule -->
<g id="edge10" class="edge">
<title>RegistroComponent&#45;&gt;AppModule</title>
<path fill="none" stroke="black" d="M792,-85.02C792,-103.63 792,-129.8 792,-129.8 792,-129.8 1279.15,-129.8 1279.15,-129.8"/>
<polygon fill="black" stroke="black" points="1279.15,-133.3 1289.15,-129.8 1279.15,-126.3 1279.15,-133.3"/>
</g>
<!-- RevisarComentariosComponent -->
<g id="node11" class="node">
<title>RevisarComentariosComponent</title>
<polygon fill="#ffffb3" stroke="black" points="709.64,-84.8 514.36,-84.8 514.36,-48.8 709.64,-48.8 709.64,-84.8"/>
<text text-anchor="middle" x="612" y="-62.6" font-family="Times,serif" font-size="14.00">RevisarComentariosComponent</text>
</g>
<!-- RevisarComentariosComponent&#45;&gt;AppModule -->
<g id="edge11" class="edge">
<title>RevisarComentariosComponent&#45;&gt;AppModule</title>
<path fill="none" stroke="black" d="M612,-85.02C612,-105.17 612,-134.8 612,-134.8 612,-134.8 1279.24,-134.8 1279.24,-134.8"/>
<polygon fill="black" stroke="black" points="1279.24,-138.3 1289.24,-134.8 1279.24,-131.3 1279.24,-138.3"/>
</g>
<!-- RevisarComentariosEliminadosComponent -->
<g id="node12" class="node">
<title>RevisarComentariosEliminadosComponent</title>
<polygon fill="#ffffb3" stroke="black" points="495.91,-84.8 236.09,-84.8 236.09,-48.8 495.91,-48.8 495.91,-84.8"/>
<text text-anchor="middle" x="366" y="-62.6" font-family="Times,serif" font-size="14.00">RevisarComentariosEliminadosComponent</text>
</g>
<!-- RevisarComentariosEliminadosComponent&#45;&gt;AppModule -->
<g id="edge12" class="edge">
<title>RevisarComentariosEliminadosComponent&#45;&gt;AppModule</title>
<path fill="none" stroke="black" d="M366,-84.84C366,-106.46 366,-139.8 366,-139.8 366,-139.8 1279.23,-139.8 1279.23,-139.8"/>
<polygon fill="black" stroke="black" points="1279.23,-143.3 1289.23,-139.8 1279.23,-136.3 1279.23,-143.3"/>
</g>
<!-- TemporadaEnCursoComponent -->
<g id="node13" class="node">
<title>TemporadaEnCursoComponent</title>
<polygon fill="#ffffb3" stroke="black" points="218.08,-84.8 23.92,-84.8 23.92,-48.8 218.08,-48.8 218.08,-84.8"/>
<text text-anchor="middle" x="121" y="-62.6" font-family="Times,serif" font-size="14.00">TemporadaEnCursoComponent</text>
</g>
<!-- TemporadaEnCursoComponent&#45;&gt;AppModule -->
<g id="edge13" class="edge">
<title>TemporadaEnCursoComponent&#45;&gt;AppModule</title>
<path fill="none" stroke="black" d="M121,-84.89C121,-107.93 121,-144.8 121,-144.8 121,-144.8 1279,-144.8 1279,-144.8"/>
<polygon fill="black" stroke="black" points="1279,-148.3 1289,-144.8 1279,-141.3 1279,-148.3"/>
</g>
<!-- AppComponent  -->
<g id="node16" class="node">
<title>AppComponent </title>
<polygon fill="#80b1d3" stroke="black" points="1385.44,-214.8 1276.56,-214.8 1276.56,-178.8 1385.44,-178.8 1385.44,-214.8"/>
<text text-anchor="middle" x="1331" y="-192.6" font-family="Times,serif" font-size="14.00">AppComponent </text>
</g>
<!-- AppModule&#45;&gt;AppComponent  -->
<g id="edge15" class="edge">
<title>AppModule&#45;&gt;AppComponent </title>
<path fill="none" stroke="black" stroke-dasharray="1,5" d="M1331,-149.91C1331,-149.91 1331,-168.79 1331,-168.79"/>
<polygon fill="black" stroke="black" points="1327.5,-168.79 1331,-178.79 1334.5,-168.79 1327.5,-168.79"/>
</g>
<!-- AppRoutingModule -->
<g id="node15" class="node">
<title>AppRoutingModule</title>
<polygon fill="#8dd3c7" stroke="black" points="2529.28,-84.8 2526.28,-88.8 2505.28,-88.8 2502.28,-84.8 2400.72,-84.8 2400.72,-48.8 2529.28,-48.8 2529.28,-84.8"/>
<text text-anchor="middle" x="2465" y="-62.6" font-family="Times,serif" font-size="14.00">AppRoutingModule</text>
</g>
<!-- AppRoutingModule&#45;&gt;AppModule -->
<g id="edge14" class="edge">
<title>AppRoutingModule&#45;&gt;AppModule</title>
<path fill="none" stroke="black" d="M2465,-84.89C2465,-107.93 2465,-144.8 2465,-144.8 2465,-144.8 1382.7,-144.8 1382.7,-144.8"/>
<polygon fill="black" stroke="black" points="1382.7,-141.3 1372.7,-144.8 1382.7,-148.3 1382.7,-141.3"/>
</g>
</g>
</svg>
