<?xml version="1.0" encoding="UTF-8" standalone="no"?>
<!DOCTYPE svg PUBLIC "-//W3C//DTD SVG 1.1//EN"
 "http://www.w3.org/Graphics/SVG/1.1/DTD/svg11.dtd">
<!-- Generated by graphviz version 5.0.0 (20220707.1540)
 -->
<!-- Title: dependencies Pages: 1 -->
<svg width="1502pt" height="247pt"
 viewBox="0.00 0.00 1502.00 246.80" xmlns="http://www.w3.org/2000/svg" xmlns:xlink="http://www.w3.org/1999/xlink">
<g id="graph0" class="graph" transform="scale(1 1) rotate(0) translate(4 242.8)">
<title>dependencies</title>
<polygon fill="white" stroke="transparent" points="-4,4 -4,-242.8 1498,-242.8 1498,4 -4,4"/>
<text text-anchor="middle" x="747" y="-8.2" font-family="sans-serif" font-size="14.00">dependencies</text>
<g id="clust1" class="cluster">
<title>cluster_AppModule</title>
<polygon fill="none" stroke="black" stroke-dasharray="1,5" points="8,-32.8 8,-230.8 1486,-230.8 1486,-32.8 8,-32.8"/>
</g>
<g id="clust13" class="cluster">
<title>cluster_AppModule_bootstrap</title>
<polygon fill="none" stroke="black" points="671,-170.8 671,-222.8 795,-222.8 795,-170.8 671,-170.8"/>
</g>
<g id="clust2" class="cluster">
<title>cluster_AppModule_declarations</title>
<polygon fill="none" stroke="black" points="168,-40.8 168,-92.8 1478,-92.8 1478,-40.8 168,-40.8"/>
</g>
<g id="clust11" class="cluster">
<title>cluster_AppModule_imports</title>
<polygon fill="none" stroke="black" points="16,-40.8 16,-92.8 160,-92.8 160,-40.8 16,-40.8"/>
</g>
<!-- AnadirUsuariosComponent -->
<g id="node1" class="node">
<title>AnadirUsuariosComponent</title>
<polygon fill="#ffffb3" stroke="black" points="1469.98,-84.8 1300.02,-84.8 1300.02,-48.8 1469.98,-48.8 1469.98,-84.8"/>
<text text-anchor="middle" x="1385" y="-62.6" font-family="Times,serif" font-size="14.00">AnadirUsuariosComponent</text>
</g>
<!-- AppModule -->
<g id="node9" class="node">
<title>AppModule</title>
<polygon fill="#8dd3c7" stroke="black" points="774.66,-149.8 771.66,-153.8 750.66,-153.8 747.66,-149.8 691.34,-149.8 691.34,-113.8 774.66,-113.8 774.66,-149.8"/>
<text text-anchor="middle" x="733" y="-127.6" font-family="Times,serif" font-size="14.00">AppModule</text>
</g>
<!-- AnadirUsuariosComponent&#45;&gt;AppModule -->
<g id="edge1" class="edge">
<title>AnadirUsuariosComponent&#45;&gt;AppModule</title>
<path fill="none" stroke="black" d="M1385,-84.81C1385,-107.29 1385,-142.8 1385,-142.8 1385,-142.8 784.78,-142.8 784.78,-142.8"/>
<polygon fill="black" stroke="black" points="784.78,-139.3 774.78,-142.8 784.78,-146.3 784.78,-139.3"/>
</g>
<!-- AppComponent -->
<g id="node2" class="node">
<title>AppComponent</title>
<polygon fill="#ffffb3" stroke="black" points="1281.94,-84.8 1176.06,-84.8 1176.06,-48.8 1281.94,-48.8 1281.94,-84.8"/>
<text text-anchor="middle" x="1229" y="-62.6" font-family="Times,serif" font-size="14.00">AppComponent</text>
</g>
<!-- AppComponent&#45;&gt;AppModule -->
<g id="edge2" class="edge">
<title>AppComponent&#45;&gt;AppModule</title>
<path fill="none" stroke="black" d="M1229,-84.93C1229,-105.37 1229,-135.8 1229,-135.8 1229,-135.8 784.86,-135.8 784.86,-135.8"/>
<polygon fill="black" stroke="black" points="784.86,-132.3 774.86,-135.8 784.86,-139.3 784.86,-132.3"/>
</g>
<!-- CardsInicioComponent -->
<g id="node3" class="node">
<title>CardsInicioComponent</title>
<polygon fill="#ffffb3" stroke="black" points="1158.15,-84.8 1011.85,-84.8 1011.85,-48.8 1158.15,-48.8 1158.15,-84.8"/>
<text text-anchor="middle" x="1085" y="-62.6" font-family="Times,serif" font-size="14.00">CardsInicioComponent</text>
</g>
<!-- CardsInicioComponent&#45;&gt;AppModule -->
<g id="edge3" class="edge">
<title>CardsInicioComponent&#45;&gt;AppModule</title>
<path fill="none" stroke="black" d="M1085,-85.07C1085,-103.36 1085,-128.8 1085,-128.8 1085,-128.8 784.76,-128.8 784.76,-128.8"/>
<polygon fill="black" stroke="black" points="784.76,-125.3 774.76,-128.8 784.76,-132.3 784.76,-125.3"/>
</g>
<!-- GestionarUsuariosComponent -->
<g id="node4" class="node">
<title>GestionarUsuariosComponent</title>
<polygon fill="#ffffb3" stroke="black" points="993.53,-84.8 808.47,-84.8 808.47,-48.8 993.53,-48.8 993.53,-84.8"/>
<text text-anchor="middle" x="901" y="-62.6" font-family="Times,serif" font-size="14.00">GestionarUsuariosComponent</text>
</g>
<!-- GestionarUsuariosComponent&#45;&gt;AppModule -->
<g id="edge4" class="edge">
<title>GestionarUsuariosComponent&#45;&gt;AppModule</title>
<path fill="none" stroke="black" d="M901,-84.81C901,-100.85 901,-121.8 901,-121.8 901,-121.8 784.96,-121.8 784.96,-121.8"/>
<polygon fill="black" stroke="black" points="784.96,-118.3 774.96,-121.8 784.96,-125.3 784.96,-118.3"/>
</g>
<!-- LoginComponent -->
<g id="node5" class="node">
<title>LoginComponent</title>
<polygon fill="#ffffb3" stroke="black" points="790.27,-84.8 675.73,-84.8 675.73,-48.8 790.27,-48.8 790.27,-84.8"/>
<text text-anchor="middle" x="733" y="-62.6" font-family="Times,serif" font-size="14.00">LoginComponent</text>
</g>
<!-- LoginComponent&#45;&gt;AppModule -->
<g id="edge5" class="edge">
<title>LoginComponent&#45;&gt;AppModule</title>
<path fill="none" stroke="black" d="M733,-84.91C733,-84.91 733,-103.79 733,-103.79"/>
<polygon fill="black" stroke="black" points="729.5,-103.79 733,-113.79 736.5,-103.79 729.5,-103.79"/>
</g>
<!-- NavbarComponent -->
<g id="node6" class="node">
<title>NavbarComponent</title>
<polygon fill="#ffffb3" stroke="black" points="657.03,-84.8 534.97,-84.8 534.97,-48.8 657.03,-48.8 657.03,-84.8"/>
<text text-anchor="middle" x="596" y="-62.6" font-family="Times,serif" font-size="14.00">NavbarComponent</text>
</g>
<!-- NavbarComponent&#45;&gt;AppModule -->
<g id="edge6" class="edge">
<title>NavbarComponent&#45;&gt;AppModule</title>
<path fill="none" stroke="black" d="M596,-84.81C596,-100.85 596,-121.8 596,-121.8 596,-121.8 681.15,-121.8 681.15,-121.8"/>
<polygon fill="black" stroke="black" points="681.15,-125.3 691.15,-121.8 681.15,-118.3 681.15,-125.3"/>
</g>
<!-- RegistroComponent -->
<g id="node7" class="node">
<title>RegistroComponent</title>
<polygon fill="#ffffb3" stroke="black" points="516.27,-84.8 387.73,-84.8 387.73,-48.8 516.27,-48.8 516.27,-84.8"/>
<text text-anchor="middle" x="452" y="-62.6" font-family="Times,serif" font-size="14.00">RegistroComponent</text>
</g>
<!-- RegistroComponent&#45;&gt;AppModule -->
<g id="edge7" class="edge">
<title>RegistroComponent&#45;&gt;AppModule</title>
<path fill="none" stroke="black" d="M452,-85.07C452,-103.36 452,-128.8 452,-128.8 452,-128.8 681.23,-128.8 681.23,-128.8"/>
<polygon fill="black" stroke="black" points="681.23,-132.3 691.23,-128.8 681.23,-125.3 681.23,-132.3"/>
</g>
<!-- TemporadaEnCursoComponent -->
<g id="node8" class="node">
<title>TemporadaEnCursoComponent</title>
<polygon fill="#ffffb3" stroke="black" points="370.08,-84.8 175.92,-84.8 175.92,-48.8 370.08,-48.8 370.08,-84.8"/>
<text text-anchor="middle" x="273" y="-62.6" font-family="Times,serif" font-size="14.00">TemporadaEnCursoComponent</text>
</g>
<!-- TemporadaEnCursoComponent&#45;&gt;AppModule -->
<g id="edge8" class="edge">
<title>TemporadaEnCursoComponent&#45;&gt;AppModule</title>
<path fill="none" stroke="black" d="M273,-84.93C273,-105.37 273,-135.8 273,-135.8 273,-135.8 680.96,-135.8 680.96,-135.8"/>
<polygon fill="black" stroke="black" points="680.96,-139.3 690.96,-135.8 680.96,-132.3 680.96,-139.3"/>
</g>
<!-- AppComponent  -->
<g id="node11" class="node">
<title>AppComponent </title>
<polygon fill="#80b1d3" stroke="black" points="787.44,-214.8 678.56,-214.8 678.56,-178.8 787.44,-178.8 787.44,-214.8"/>
<text text-anchor="middle" x="733" y="-192.6" font-family="Times,serif" font-size="14.00">AppComponent </text>
</g>
<!-- AppModule&#45;&gt;AppComponent  -->
<g id="edge10" class="edge">
<title>AppModule&#45;&gt;AppComponent </title>
<path fill="none" stroke="black" stroke-dasharray="1,5" d="M733,-149.91C733,-149.91 733,-168.79 733,-168.79"/>
<polygon fill="black" stroke="black" points="729.5,-168.79 733,-178.79 736.5,-168.79 729.5,-168.79"/>
</g>
<!-- AppRoutingModule -->
<g id="node10" class="node">
<title>AppRoutingModule</title>
<polygon fill="#8dd3c7" stroke="black" points="152.28,-84.8 149.28,-88.8 128.28,-88.8 125.28,-84.8 23.72,-84.8 23.72,-48.8 152.28,-48.8 152.28,-84.8"/>
<text text-anchor="middle" x="88" y="-62.6" font-family="Times,serif" font-size="14.00">AppRoutingModule</text>
</g>
<!-- AppRoutingModule&#45;&gt;AppModule -->
<g id="edge9" class="edge">
<title>AppRoutingModule&#45;&gt;AppModule</title>
<path fill="none" stroke="black" d="M88,-84.81C88,-107.29 88,-142.8 88,-142.8 88,-142.8 681.18,-142.8 681.18,-142.8"/>
<polygon fill="black" stroke="black" points="681.18,-146.3 691.18,-142.8 681.18,-139.3 681.18,-146.3"/>
</g>
</g>
</svg>
