<?xml version="1.0" encoding="UTF-8" standalone="no"?>
<!DOCTYPE svg PUBLIC "-//W3C//DTD SVG 1.1//EN"
 "http://www.w3.org/Graphics/SVG/1.1/DTD/svg11.dtd">
<!-- Generated by graphviz version 5.0.0 (20220707.1540)
 -->
<!-- Title: dependencies Pages: 1 -->
<svg width="1994pt" height="247pt"
 viewBox="0.00 0.00 1994.00 246.80" xmlns="http://www.w3.org/2000/svg" xmlns:xlink="http://www.w3.org/1999/xlink">
<g id="graph0" class="graph" transform="scale(1 1) rotate(0) translate(4 242.8)">
<title>dependencies</title>
<polygon fill="white" stroke="transparent" points="-4,4 -4,-242.8 1990,-242.8 1990,4 -4,4"/>
<text text-anchor="middle" x="993" y="-8.2" font-family="sans-serif" font-size="14.00">dependencies</text>
<g id="clust1" class="cluster">
<title>cluster_AppModule</title>
<polygon fill="none" stroke="black" stroke-dasharray="1,5" points="8,-32.8 8,-230.8 1978,-230.8 1978,-32.8 8,-32.8"/>
</g>
<g id="clust13" class="cluster">
<title>cluster_AppModule_imports</title>
<polygon fill="none" stroke="black" points="1826,-40.8 1826,-92.8 1970,-92.8 1970,-40.8 1826,-40.8"/>
</g>
<g id="clust15" class="cluster">
<title>cluster_AppModule_bootstrap</title>
<polygon fill="none" stroke="black" points="1011,-170.8 1011,-222.8 1135,-222.8 1135,-170.8 1011,-170.8"/>
</g>
<g id="clust2" class="cluster">
<title>cluster_AppModule_declarations</title>
<polygon fill="none" stroke="black" points="16,-40.8 16,-92.8 1818,-92.8 1818,-40.8 16,-40.8"/>
</g>
<!-- AnadirUsuariosComponent -->
<g id="node1" class="node">
<title>AnadirUsuariosComponent</title>
<polygon fill="#ffffb3" stroke="black" points="1809.98,-84.8 1640.02,-84.8 1640.02,-48.8 1809.98,-48.8 1809.98,-84.8"/>
<text text-anchor="middle" x="1725" y="-62.6" font-family="Times,serif" font-size="14.00">AnadirUsuariosComponent</text>
</g>
<!-- AppModule -->
<g id="node11" class="node">
<title>AppModule</title>
<polygon fill="#8dd3c7" stroke="black" points="1114.66,-149.8 1111.66,-153.8 1090.66,-153.8 1087.66,-149.8 1031.34,-149.8 1031.34,-113.8 1114.66,-113.8 1114.66,-149.8"/>
<text text-anchor="middle" x="1073" y="-127.6" font-family="Times,serif" font-size="14.00">AppModule</text>
</g>
<!-- AnadirUsuariosComponent&#45;&gt;AppModule -->
<g id="edge1" class="edge">
<title>AnadirUsuariosComponent&#45;&gt;AppModule</title>
<path fill="none" stroke="black" d="M1725,-85.08C1725,-106.12 1725,-137.8 1725,-137.8 1725,-137.8 1124.78,-137.8 1124.78,-137.8"/>
<polygon fill="black" stroke="black" points="1124.78,-134.3 1114.78,-137.8 1124.78,-141.3 1124.78,-134.3"/>
</g>
<!-- AppComponent -->
<g id="node2" class="node">
<title>AppComponent</title>
<polygon fill="#ffffb3" stroke="black" points="1621.94,-84.8 1516.06,-84.8 1516.06,-48.8 1621.94,-48.8 1621.94,-84.8"/>
<text text-anchor="middle" x="1569" y="-62.6" font-family="Times,serif" font-size="14.00">AppComponent</text>
</g>
<!-- AppComponent&#45;&gt;AppModule -->
<g id="edge2" class="edge">
<title>AppComponent&#45;&gt;AppModule</title>
<path fill="none" stroke="black" d="M1569,-84.91C1569,-104.14 1569,-131.8 1569,-131.8 1569,-131.8 1124.86,-131.8 1124.86,-131.8"/>
<polygon fill="black" stroke="black" points="1124.86,-128.3 1114.86,-131.8 1124.86,-135.3 1124.86,-128.3"/>
</g>
<!-- CardsInicioComponent -->
<g id="node3" class="node">
<title>CardsInicioComponent</title>
<polygon fill="#ffffb3" stroke="black" points="1498.15,-84.8 1351.85,-84.8 1351.85,-48.8 1498.15,-48.8 1498.15,-84.8"/>
<text text-anchor="middle" x="1425" y="-62.6" font-family="Times,serif" font-size="14.00">CardsInicioComponent</text>
</g>
<!-- CardsInicioComponent&#45;&gt;AppModule -->
<g id="edge3" class="edge">
<title>CardsInicioComponent&#45;&gt;AppModule</title>
<path fill="none" stroke="black" d="M1425,-84.82C1425,-102.17 1425,-125.8 1425,-125.8 1425,-125.8 1124.76,-125.8 1124.76,-125.8"/>
<polygon fill="black" stroke="black" points="1124.76,-122.3 1114.76,-125.8 1124.76,-129.3 1124.76,-122.3"/>
</g>
<!-- GestionarUsuariosComponent -->
<g id="node4" class="node">
<title>GestionarUsuariosComponent</title>
<polygon fill="#ffffb3" stroke="black" points="1333.53,-84.8 1148.47,-84.8 1148.47,-48.8 1333.53,-48.8 1333.53,-84.8"/>
<text text-anchor="middle" x="1241" y="-62.6" font-family="Times,serif" font-size="14.00">GestionarUsuariosComponent</text>
</g>
<!-- GestionarUsuariosComponent&#45;&gt;AppModule -->
<g id="edge4" class="edge">
<title>GestionarUsuariosComponent&#45;&gt;AppModule</title>
<path fill="none" stroke="black" d="M1241,-85.04C1241,-100.37 1241,-119.8 1241,-119.8 1241,-119.8 1124.96,-119.8 1124.96,-119.8"/>
<polygon fill="black" stroke="black" points="1124.96,-116.3 1114.96,-119.8 1124.96,-123.3 1124.96,-116.3"/>
</g>
<!-- LoginComponent -->
<g id="node5" class="node">
<title>LoginComponent</title>
<polygon fill="#ffffb3" stroke="black" points="1130.27,-84.8 1015.73,-84.8 1015.73,-48.8 1130.27,-48.8 1130.27,-84.8"/>
<text text-anchor="middle" x="1073" y="-62.6" font-family="Times,serif" font-size="14.00">LoginComponent</text>
</g>
<!-- LoginComponent&#45;&gt;AppModule -->
<g id="edge5" class="edge">
<title>LoginComponent&#45;&gt;AppModule</title>
<path fill="none" stroke="black" d="M1073,-84.91C1073,-84.91 1073,-103.79 1073,-103.79"/>
<polygon fill="black" stroke="black" points="1069.5,-103.79 1073,-113.79 1076.5,-103.79 1069.5,-103.79"/>
</g>
<!-- NavbarComponent -->
<g id="node6" class="node">
<title>NavbarComponent</title>
<polygon fill="#ffffb3" stroke="black" points="997.03,-84.8 874.97,-84.8 874.97,-48.8 997.03,-48.8 997.03,-84.8"/>
<text text-anchor="middle" x="936" y="-62.6" font-family="Times,serif" font-size="14.00">NavbarComponent</text>
</g>
<!-- NavbarComponent&#45;&gt;AppModule -->
<g id="edge6" class="edge">
<title>NavbarComponent&#45;&gt;AppModule</title>
<path fill="none" stroke="black" d="M936,-85.04C936,-100.37 936,-119.8 936,-119.8 936,-119.8 1021.15,-119.8 1021.15,-119.8"/>
<polygon fill="black" stroke="black" points="1021.15,-123.3 1031.15,-119.8 1021.15,-116.3 1021.15,-123.3"/>
</g>
<!-- RegistroComponent -->
<g id="node7" class="node">
<title>RegistroComponent</title>
<polygon fill="#ffffb3" stroke="black" points="856.27,-84.8 727.73,-84.8 727.73,-48.8 856.27,-48.8 856.27,-84.8"/>
<text text-anchor="middle" x="792" y="-62.6" font-family="Times,serif" font-size="14.00">RegistroComponent</text>
</g>
<!-- RegistroComponent&#45;&gt;AppModule -->
<g id="edge7" class="edge">
<title>RegistroComponent&#45;&gt;AppModule</title>
<path fill="none" stroke="black" d="M792,-84.82C792,-102.17 792,-125.8 792,-125.8 792,-125.8 1021.23,-125.8 1021.23,-125.8"/>
<polygon fill="black" stroke="black" points="1021.23,-129.3 1031.23,-125.8 1021.23,-122.3 1021.23,-129.3"/>
</g>
<!-- RevisarComentariosComponent -->
<g id="node8" class="node">
<title>RevisarComentariosComponent</title>
<polygon fill="#ffffb3" stroke="black" points="709.64,-84.8 514.36,-84.8 514.36,-48.8 709.64,-48.8 709.64,-84.8"/>
<text text-anchor="middle" x="612" y="-62.6" font-family="Times,serif" font-size="14.00">RevisarComentariosComponent</text>
</g>
<!-- RevisarComentariosComponent&#45;&gt;AppModule -->
<g id="edge8" class="edge">
<title>RevisarComentariosComponent&#45;&gt;AppModule</title>
<path fill="none" stroke="black" d="M612,-84.91C612,-104.14 612,-131.8 612,-131.8 612,-131.8 1021.28,-131.8 1021.28,-131.8"/>
<polygon fill="black" stroke="black" points="1021.28,-135.3 1031.28,-131.8 1021.28,-128.3 1021.28,-135.3"/>
</g>
<!-- RevisarComentariosEliminadosComponent -->
<g id="node9" class="node">
<title>RevisarComentariosEliminadosComponent</title>
<polygon fill="#ffffb3" stroke="black" points="495.91,-84.8 236.09,-84.8 236.09,-48.8 495.91,-48.8 495.91,-84.8"/>
<text text-anchor="middle" x="366" y="-62.6" font-family="Times,serif" font-size="14.00">RevisarComentariosEliminadosComponent</text>
</g>
<!-- RevisarComentariosEliminadosComponent&#45;&gt;AppModule -->
<g id="edge9" class="edge">
<title>RevisarComentariosEliminadosComponent&#45;&gt;AppModule</title>
<path fill="none" stroke="black" d="M366,-85.08C366,-106.12 366,-137.8 366,-137.8 366,-137.8 1021.15,-137.8 1021.15,-137.8"/>
<polygon fill="black" stroke="black" points="1021.15,-141.3 1031.15,-137.8 1021.15,-134.3 1021.15,-141.3"/>
</g>
<!-- TemporadaEnCursoComponent -->
<g id="node10" class="node">
<title>TemporadaEnCursoComponent</title>
<polygon fill="#ffffb3" stroke="black" points="218.08,-84.8 23.92,-84.8 23.92,-48.8 218.08,-48.8 218.08,-84.8"/>
<text text-anchor="middle" x="121" y="-62.6" font-family="Times,serif" font-size="14.00">TemporadaEnCursoComponent</text>
</g>
<!-- TemporadaEnCursoComponent&#45;&gt;AppModule -->
<g id="edge10" class="edge">
<title>TemporadaEnCursoComponent&#45;&gt;AppModule</title>
<path fill="none" stroke="black" d="M121,-85.05C121,-107.82 121,-143.8 121,-143.8 121,-143.8 1021.17,-143.8 1021.17,-143.8"/>
<polygon fill="black" stroke="black" points="1021.17,-147.3 1031.17,-143.8 1021.17,-140.3 1021.17,-147.3"/>
</g>
<!-- AppComponent  -->
<g id="node13" class="node">
<title>AppComponent </title>
<polygon fill="#80b1d3" stroke="black" points="1127.44,-214.8 1018.56,-214.8 1018.56,-178.8 1127.44,-178.8 1127.44,-214.8"/>
<text text-anchor="middle" x="1073" y="-192.6" font-family="Times,serif" font-size="14.00">AppComponent </text>
</g>
<!-- AppModule&#45;&gt;AppComponent  -->
<g id="edge12" class="edge">
<title>AppModule&#45;&gt;AppComponent </title>
<path fill="none" stroke="black" stroke-dasharray="1,5" d="M1073,-149.91C1073,-149.91 1073,-168.79 1073,-168.79"/>
<polygon fill="black" stroke="black" points="1069.5,-168.79 1073,-178.79 1076.5,-168.79 1069.5,-168.79"/>
</g>
<!-- AppRoutingModule -->
<g id="node12" class="node">
<title>AppRoutingModule</title>
<polygon fill="#8dd3c7" stroke="black" points="1962.28,-84.8 1959.28,-88.8 1938.28,-88.8 1935.28,-84.8 1833.72,-84.8 1833.72,-48.8 1962.28,-48.8 1962.28,-84.8"/>
<text text-anchor="middle" x="1898" y="-62.6" font-family="Times,serif" font-size="14.00">AppRoutingModule</text>
</g>
<!-- AppRoutingModule&#45;&gt;AppModule -->
<g id="edge11" class="edge">
<title>AppRoutingModule&#45;&gt;AppModule</title>
<path fill="none" stroke="black" d="M1898,-85.05C1898,-107.82 1898,-143.8 1898,-143.8 1898,-143.8 1124.76,-143.8 1124.76,-143.8"/>
<polygon fill="black" stroke="black" points="1124.76,-140.3 1114.76,-143.8 1124.76,-147.3 1124.76,-140.3"/>
</g>
</g>
</svg>
