<?xml version="1.0" encoding="UTF-8" standalone="no"?>
<!DOCTYPE svg PUBLIC "-//W3C//DTD SVG 1.1//EN"
 "http://www.w3.org/Graphics/SVG/1.1/DTD/svg11.dtd">
<!-- Generated by graphviz version 5.0.0 (20220707.1540)
 -->
<!-- Title: dependencies Pages: 1 -->
<svg width="1994pt" height="247pt"
 viewBox="0.00 0.00 1994.00 246.80" xmlns="http://www.w3.org/2000/svg" xmlns:xlink="http://www.w3.org/1999/xlink">
<g id="graph0" class="graph" transform="scale(1 1) rotate(0) translate(4 242.8)">
<title>dependencies</title>
<polygon fill="white" stroke="transparent" points="-4,4 -4,-242.8 1990,-242.8 1990,4 -4,4"/>
<text text-anchor="middle" x="993" y="-8.2" font-family="sans-serif" font-size="14.00">dependencies</text>
<g id="clust1" class="cluster">
<title>cluster_AppModule</title>
<polygon fill="none" stroke="black" stroke-dasharray="1,5" points="8,-32.8 8,-230.8 1978,-230.8 1978,-32.8 8,-32.8"/>
</g>
<g id="clust2" class="cluster">
<title>cluster_AppModule_declarations</title>
<polygon fill="none" stroke="black" points="168,-40.8 168,-92.8 1970,-92.8 1970,-40.8 168,-40.8"/>
</g>
<g id="clust13" class="cluster">
<title>cluster_AppModule_imports</title>
<polygon fill="none" stroke="black" points="16,-40.8 16,-92.8 160,-92.8 160,-40.8 16,-40.8"/>
</g>
<g id="clust15" class="cluster">
<title>cluster_AppModule_bootstrap</title>
<polygon fill="none" stroke="black" points="1026,-170.8 1026,-222.8 1150,-222.8 1150,-170.8 1026,-170.8"/>
</g>
<!-- AnadirUsuariosComponent -->
<g id="node1" class="node">
<title>AnadirUsuariosComponent</title>
<polygon fill="#ffffb3" stroke="black" points="1961.98,-84.8 1792.02,-84.8 1792.02,-48.8 1961.98,-48.8 1961.98,-84.8"/>
<text text-anchor="middle" x="1877" y="-62.6" font-family="Times,serif" font-size="14.00">AnadirUsuariosComponent</text>
</g>
<!-- AppModule -->
<g id="node11" class="node">
<title>AppModule</title>
<polygon fill="#8dd3c7" stroke="black" points="1129.66,-149.8 1126.66,-153.8 1105.66,-153.8 1102.66,-149.8 1046.34,-149.8 1046.34,-113.8 1129.66,-113.8 1129.66,-149.8"/>
<text text-anchor="middle" x="1088" y="-127.6" font-family="Times,serif" font-size="14.00">AppModule</text>
</g>
<!-- AnadirUsuariosComponent&#45;&gt;AppModule -->
<g id="edge1" class="edge">
<title>AnadirUsuariosComponent&#45;&gt;AppModule</title>
<path fill="none" stroke="black" d="M1877,-85.05C1877,-107.82 1877,-143.8 1877,-143.8 1877,-143.8 1139.86,-143.8 1139.86,-143.8"/>
<polygon fill="black" stroke="black" points="1139.86,-140.3 1129.86,-143.8 1139.86,-147.3 1139.86,-140.3"/>
</g>
<!-- AppComponent -->
<g id="node2" class="node">
<title>AppComponent</title>
<polygon fill="#ffffb3" stroke="black" points="1773.94,-84.8 1668.06,-84.8 1668.06,-48.8 1773.94,-48.8 1773.94,-84.8"/>
<text text-anchor="middle" x="1721" y="-62.6" font-family="Times,serif" font-size="14.00">AppComponent</text>
</g>
<!-- AppComponent&#45;&gt;AppModule -->
<g id="edge2" class="edge">
<title>AppComponent&#45;&gt;AppModule</title>
<path fill="none" stroke="black" d="M1721,-85.08C1721,-106.12 1721,-137.8 1721,-137.8 1721,-137.8 1140.02,-137.8 1140.02,-137.8"/>
<polygon fill="black" stroke="black" points="1140.02,-134.3 1130.02,-137.8 1140.02,-141.3 1140.02,-134.3"/>
</g>
<!-- CardsInicioComponent -->
<g id="node3" class="node">
<title>CardsInicioComponent</title>
<polygon fill="#ffffb3" stroke="black" points="1650.15,-84.8 1503.85,-84.8 1503.85,-48.8 1650.15,-48.8 1650.15,-84.8"/>
<text text-anchor="middle" x="1577" y="-62.6" font-family="Times,serif" font-size="14.00">CardsInicioComponent</text>
</g>
<!-- CardsInicioComponent&#45;&gt;AppModule -->
<g id="edge3" class="edge">
<title>CardsInicioComponent&#45;&gt;AppModule</title>
<path fill="none" stroke="black" d="M1577,-84.91C1577,-104.14 1577,-131.8 1577,-131.8 1577,-131.8 1139.69,-131.8 1139.69,-131.8"/>
<polygon fill="black" stroke="black" points="1139.69,-128.3 1129.69,-131.8 1139.69,-135.3 1139.69,-128.3"/>
</g>
<!-- GestionarUsuariosComponent -->
<g id="node4" class="node">
<title>GestionarUsuariosComponent</title>
<polygon fill="#ffffb3" stroke="black" points="1485.53,-84.8 1300.47,-84.8 1300.47,-48.8 1485.53,-48.8 1485.53,-84.8"/>
<text text-anchor="middle" x="1393" y="-62.6" font-family="Times,serif" font-size="14.00">GestionarUsuariosComponent</text>
</g>
<!-- GestionarUsuariosComponent&#45;&gt;AppModule -->
<g id="edge4" class="edge">
<title>GestionarUsuariosComponent&#45;&gt;AppModule</title>
<path fill="none" stroke="black" d="M1393,-84.82C1393,-102.17 1393,-125.8 1393,-125.8 1393,-125.8 1139.77,-125.8 1139.77,-125.8"/>
<polygon fill="black" stroke="black" points="1139.77,-122.3 1129.77,-125.8 1139.77,-129.3 1139.77,-122.3"/>
</g>
<!-- LoginComponent -->
<g id="node5" class="node">
<title>LoginComponent</title>
<polygon fill="#ffffb3" stroke="black" points="1282.27,-84.8 1167.73,-84.8 1167.73,-48.8 1282.27,-48.8 1282.27,-84.8"/>
<text text-anchor="middle" x="1225" y="-62.6" font-family="Times,serif" font-size="14.00">LoginComponent</text>
</g>
<!-- LoginComponent&#45;&gt;AppModule -->
<g id="edge5" class="edge">
<title>LoginComponent&#45;&gt;AppModule</title>
<path fill="none" stroke="black" d="M1225,-85.04C1225,-100.37 1225,-119.8 1225,-119.8 1225,-119.8 1139.85,-119.8 1139.85,-119.8"/>
<polygon fill="black" stroke="black" points="1139.85,-116.3 1129.85,-119.8 1139.85,-123.3 1139.85,-116.3"/>
</g>
<!-- NavbarComponent -->
<g id="node6" class="node">
<title>NavbarComponent</title>
<polygon fill="#ffffb3" stroke="black" points="1149.03,-84.8 1026.97,-84.8 1026.97,-48.8 1149.03,-48.8 1149.03,-84.8"/>
<text text-anchor="middle" x="1088" y="-62.6" font-family="Times,serif" font-size="14.00">NavbarComponent</text>
</g>
<!-- NavbarComponent&#45;&gt;AppModule -->
<g id="edge6" class="edge">
<title>NavbarComponent&#45;&gt;AppModule</title>
<path fill="none" stroke="black" d="M1088,-84.91C1088,-84.91 1088,-103.79 1088,-103.79"/>
<polygon fill="black" stroke="black" points="1084.5,-103.79 1088,-113.79 1091.5,-103.79 1084.5,-103.79"/>
</g>
<!-- RegistroComponent -->
<g id="node7" class="node">
<title>RegistroComponent</title>
<polygon fill="#ffffb3" stroke="black" points="1008.27,-84.8 879.73,-84.8 879.73,-48.8 1008.27,-48.8 1008.27,-84.8"/>
<text text-anchor="middle" x="944" y="-62.6" font-family="Times,serif" font-size="14.00">RegistroComponent</text>
</g>
<!-- RegistroComponent&#45;&gt;AppModule -->
<g id="edge7" class="edge">
<title>RegistroComponent&#45;&gt;AppModule</title>
<path fill="none" stroke="black" d="M944,-85.04C944,-100.37 944,-119.8 944,-119.8 944,-119.8 1035.96,-119.8 1035.96,-119.8"/>
<polygon fill="black" stroke="black" points="1035.96,-123.3 1045.96,-119.8 1035.96,-116.3 1035.96,-123.3"/>
</g>
<!-- RevisarComentariosComponent -->
<g id="node8" class="node">
<title>RevisarComentariosComponent</title>
<polygon fill="#ffffb3" stroke="black" points="861.64,-84.8 666.36,-84.8 666.36,-48.8 861.64,-48.8 861.64,-84.8"/>
<text text-anchor="middle" x="764" y="-62.6" font-family="Times,serif" font-size="14.00">RevisarComentariosComponent</text>
</g>
<!-- RevisarComentariosComponent&#45;&gt;AppModule -->
<g id="edge8" class="edge">
<title>RevisarComentariosComponent&#45;&gt;AppModule</title>
<path fill="none" stroke="black" d="M764,-84.82C764,-102.17 764,-125.8 764,-125.8 764,-125.8 1036.31,-125.8 1036.31,-125.8"/>
<polygon fill="black" stroke="black" points="1036.31,-129.3 1046.31,-125.8 1036.31,-122.3 1036.31,-129.3"/>
</g>
<!-- RevisarComentariosEliminadosComponent -->
<g id="node9" class="node">
<title>RevisarComentariosEliminadosComponent</title>
<polygon fill="#ffffb3" stroke="black" points="647.91,-84.8 388.09,-84.8 388.09,-48.8 647.91,-48.8 647.91,-84.8"/>
<text text-anchor="middle" x="518" y="-62.6" font-family="Times,serif" font-size="14.00">RevisarComentariosEliminadosComponent</text>
</g>
<!-- RevisarComentariosEliminadosComponent&#45;&gt;AppModule -->
<g id="edge9" class="edge">
<title>RevisarComentariosEliminadosComponent&#45;&gt;AppModule</title>
<path fill="none" stroke="black" d="M518,-84.91C518,-104.14 518,-131.8 518,-131.8 518,-131.8 1036.09,-131.8 1036.09,-131.8"/>
<polygon fill="black" stroke="black" points="1036.09,-135.3 1046.09,-131.8 1036.09,-128.3 1036.09,-135.3"/>
</g>
<!-- TemporadaEnCursoComponent -->
<g id="node10" class="node">
<title>TemporadaEnCursoComponent</title>
<polygon fill="#ffffb3" stroke="black" points="370.08,-84.8 175.92,-84.8 175.92,-48.8 370.08,-48.8 370.08,-84.8"/>
<text text-anchor="middle" x="273" y="-62.6" font-family="Times,serif" font-size="14.00">TemporadaEnCursoComponent</text>
</g>
<!-- TemporadaEnCursoComponent&#45;&gt;AppModule -->
<g id="edge10" class="edge">
<title>TemporadaEnCursoComponent&#45;&gt;AppModule</title>
<path fill="none" stroke="black" d="M273,-85.08C273,-106.12 273,-137.8 273,-137.8 273,-137.8 1036.18,-137.8 1036.18,-137.8"/>
<polygon fill="black" stroke="black" points="1036.18,-141.3 1046.18,-137.8 1036.18,-134.3 1036.18,-141.3"/>
</g>
<!-- AppComponent  -->
<g id="node13" class="node">
<title>AppComponent </title>
<polygon fill="#80b1d3" stroke="black" points="1142.44,-214.8 1033.56,-214.8 1033.56,-178.8 1142.44,-178.8 1142.44,-214.8"/>
<text text-anchor="middle" x="1088" y="-192.6" font-family="Times,serif" font-size="14.00">AppComponent </text>
</g>
<!-- AppModule&#45;&gt;AppComponent  -->
<g id="edge12" class="edge">
<title>AppModule&#45;&gt;AppComponent </title>
<path fill="none" stroke="black" stroke-dasharray="1,5" d="M1088,-149.91C1088,-149.91 1088,-168.79 1088,-168.79"/>
<polygon fill="black" stroke="black" points="1084.5,-168.79 1088,-178.79 1091.5,-168.79 1084.5,-168.79"/>
</g>
<!-- AppRoutingModule -->
<g id="node12" class="node">
<title>AppRoutingModule</title>
<polygon fill="#8dd3c7" stroke="black" points="152.28,-84.8 149.28,-88.8 128.28,-88.8 125.28,-84.8 23.72,-84.8 23.72,-48.8 152.28,-48.8 152.28,-84.8"/>
<text text-anchor="middle" x="88" y="-62.6" font-family="Times,serif" font-size="14.00">AppRoutingModule</text>
</g>
<!-- AppRoutingModule&#45;&gt;AppModule -->
<g id="edge11" class="edge">
<title>AppRoutingModule&#45;&gt;AppModule</title>
<path fill="none" stroke="black" d="M88,-85.05C88,-107.82 88,-143.8 88,-143.8 88,-143.8 1036.3,-143.8 1036.3,-143.8"/>
<polygon fill="black" stroke="black" points="1036.3,-147.3 1046.3,-143.8 1036.3,-140.3 1036.3,-147.3"/>
</g>
</g>
</svg>
